<svg width="256" height="256" viewBox="0 0 256 256" fill="none" xmlns="http://www.w3.org/2000/svg">
  <rect width="256" height="256" rx="32" fill="#D2B48C"/>
  <g transform="translate(51.2, 89.6) scale(3.072)">
    <!-- SUV silhouette -->
    <path d="M2 8h28c1 0 2 1 2 2v3c0 1-1 2-2 2h-3c0 2-2 4-4 4s-4-2-4-4h-8c0 2-2 4-4 4s-4-2-4-4h-3c-1 0-2-1-2-2v-3c0-1 1-2 2-2z" fill="#111111"/>
    <path d="M6 2h20c1 0 2 1 2 2l2 3c0 1 0 1 0 1h-26s0 0 0-1l2-3c0-1 1-2 2-2z" fill="#111111"/>
    <circle cx="11" cy="15" r="2" fill="#111111"/>
    <circle cx="21" cy="15" r="2" fill="#111111"/>
  </g>
</svg>